<svg width="20" height="14" viewBox="0 0 20 14" fill="none" xmlns="http://www.w3.org/2000/svg">
<path d="M18.75 14C18.75 14 20 14 20 12.8333C20 11.6667 18.75 8.16667 13.75 8.16667C8.75 8.16667 7.5 11.6667 7.5 12.8333C7.5 14 8.75 14 8.75 14H18.75ZM8.7775 12.8333L8.75 12.8287C8.75125 12.5207 8.95875 11.627 9.7 10.822C10.39 10.0672 11.6025 9.33333 13.75 9.33333C15.8962 9.33333 17.1087 10.0683 17.8 10.822C18.5413 11.627 18.7475 12.5218 18.75 12.8287L18.74 12.831L18.7225 12.8333H8.7775ZM13.75 5.83333C14.413 5.83333 15.0489 5.5875 15.5178 5.14992C15.9866 4.71233 16.25 4.11884 16.25 3.5C16.25 2.88116 15.9866 2.28767 15.5178 1.85008C15.0489 1.4125 14.413 1.16667 13.75 1.16667C13.087 1.16667 12.4511 1.4125 11.9822 1.85008C11.5134 2.28767 11.25 2.88116 11.25 3.5C11.25 4.11884 11.5134 4.71233 11.9822 5.14992C12.4511 5.5875 13.087 5.83333 13.75 5.83333ZM17.5 3.5C17.5 3.95963 17.403 4.41475 17.2145 4.83939C17.0261 5.26403 16.7499 5.64987 16.4017 5.97487C16.0534 6.29988 15.64 6.55769 15.1851 6.73358C14.7301 6.90947 14.2425 7 13.75 7C13.2575 7 12.7699 6.90947 12.3149 6.73358C11.86 6.55769 11.4466 6.29988 11.0983 5.97487C10.7501 5.64987 10.4739 5.26403 10.2855 4.83939C10.097 4.41475 10 3.95963 10 3.5C10 2.57174 10.3951 1.6815 11.0983 1.02513C11.8016 0.368749 12.7554 0 13.75 0C14.7446 0 15.6984 0.368749 16.4017 1.02513C17.1049 1.6815 17.5 2.57174 17.5 3.5ZM8.67 8.49333C8.1697 8.3474 7.65438 8.25081 7.1325 8.20517C6.83922 8.17847 6.54467 8.16562 6.25 8.16667C1.25 8.16667 0 11.6667 0 12.8333C0 13.6111 0.416667 14 1.25 14H6.52C6.33478 13.6358 6.24237 13.2365 6.25 12.8333C6.25 11.655 6.72125 10.451 7.6125 9.44533C7.91625 9.10233 8.27 8.7815 8.67 8.49333ZM6.15 9.33333C5.41066 10.371 5.01106 11.5872 5 12.8333H1.25C1.25 12.53 1.455 11.6317 2.2 10.822C2.88125 10.08 4.065 9.35667 6.15 9.3345V9.33333ZM1.875 4.08333C1.875 3.15508 2.27009 2.26484 2.97335 1.60846C3.67661 0.952082 4.63044 0.583333 5.625 0.583333C6.61956 0.583333 7.57339 0.952082 8.27665 1.60846C8.97991 2.26484 9.375 3.15508 9.375 4.08333C9.375 5.01159 8.97991 5.90183 8.27665 6.55821C7.57339 7.21458 6.61956 7.58333 5.625 7.58333C4.63044 7.58333 3.67661 7.21458 2.97335 6.55821C2.27009 5.90183 1.875 5.01159 1.875 4.08333ZM5.625 1.75C4.96196 1.75 4.32607 1.99583 3.85723 2.43342C3.38839 2.871 3.125 3.46449 3.125 4.08333C3.125 4.70217 3.38839 5.29566 3.85723 5.73325C4.32607 6.17083 4.96196 6.41667 5.625 6.41667C6.28804 6.41667 6.92393 6.17083 7.39277 5.73325C7.86161 5.29566 8.125 4.70217 8.125 4.08333C8.125 3.46449 7.86161 2.871 7.39277 2.43342C6.92393 1.99583 6.28804 1.75 5.625 1.75Z" fill="white"/>
</svg>
