<svg width="20" height="20" viewBox="0 0 20 20" fill="none" xmlns="http://www.w3.org/2000/svg">
<path fill-rule="evenodd" clip-rule="evenodd" d="M1.78429 9.99916C1.78394 8.26229 2.33404 6.57 3.3556 5.16532C4.37716 3.76065 5.81761 2.71586 7.47008 2.18102C9.12254 1.64617 10.902 1.64879 12.5529 2.18849C14.2038 2.72818 15.6411 3.7772 16.6586 5.18487L15.9229 5.92059C15.8227 6.02049 15.7545 6.14787 15.7268 6.2866C15.6991 6.42533 15.7133 6.56915 15.7674 6.69982C15.8216 6.8305 15.9134 6.94215 16.0311 7.02062C16.1488 7.09909 16.2871 7.14084 16.4286 7.14059H19.2857C19.4752 7.14059 19.6568 7.06533 19.7908 6.93138C19.9247 6.79742 20 6.61574 20 6.4263V3.56916C20.0003 3.4277 19.9585 3.28935 19.88 3.17165C19.8016 3.05396 19.6899 2.96221 19.5592 2.90804C19.4286 2.85387 19.2847 2.83972 19.146 2.86739C19.0073 2.89506 18.8799 2.96329 18.78 3.06344L17.9343 3.91059C16.662 2.25352 14.9027 1.03647 12.9034 0.43028C10.9042 -0.175912 8.76523 -0.14081 6.78692 0.530658C4.8086 1.20213 3.09022 2.47625 1.87298 4.17417C0.655747 5.87209 0.000772425 7.90857 0 9.99773C0 10.2345 0.0940686 10.4616 0.261512 10.6291C0.428955 10.7965 0.656057 10.8906 0.892857 10.8906C1.12966 10.8906 1.35676 10.7965 1.5242 10.6291C1.69165 10.4616 1.78571 10.2345 1.78571 9.99773M10 4.10487C10.4929 4.10487 10.8929 4.50487 10.8929 4.99773V5.79345C11.3607 5.85551 11.8023 6.04584 12.1686 6.34337C12.535 6.64089 12.8118 7.03399 12.9686 7.47916C13.0122 7.5907 13.033 7.70987 13.0296 7.8296C13.0263 7.94933 12.9989 8.06716 12.949 8.17607C12.8992 8.28498 12.8279 8.38276 12.7395 8.46357C12.6511 8.54438 12.5474 8.60658 12.4344 8.64646C12.3215 8.68634 12.2017 8.7031 12.0821 8.69572C11.9626 8.68834 11.8457 8.65699 11.7386 8.60353C11.6314 8.55006 11.5361 8.47558 11.4583 8.38451C11.3805 8.29345 11.3218 8.18766 11.2857 8.07344C11.2326 7.92234 11.1338 7.79151 11.003 7.69909C10.8722 7.60668 10.7159 7.55728 10.5557 7.55773H9.26571C9.1183 7.5563 8.97562 7.60972 8.86538 7.7076C8.75514 7.80548 8.68522 7.94084 8.6692 8.08738C8.65317 8.23393 8.69218 8.3812 8.77866 8.5006C8.86514 8.61999 8.9929 8.70298 9.13714 8.73344L11.1029 9.16202C11.6921 9.2899 12.2172 9.62166 12.5858 10.0988C12.9544 10.576 13.1427 11.1679 13.1176 11.7703C13.0925 12.3728 12.8556 12.947 12.4486 13.3918C12.0416 13.8367 11.4907 14.1236 10.8929 14.202V14.9977C10.8929 15.2345 10.7988 15.4616 10.6313 15.6291C10.4639 15.7965 10.2368 15.8906 10 15.8906C9.7632 15.8906 9.5361 15.7965 9.36865 15.6291C9.20121 15.4616 9.10714 15.2345 9.10714 14.9977V14.202C8.63929 14.1399 8.19775 13.9496 7.83139 13.6521C7.46503 13.3546 7.18816 12.9615 7.03143 12.5163C6.98778 12.4048 6.96701 12.2856 6.97037 12.1659C6.97373 12.0461 7.00115 11.9283 7.05098 11.8194C7.10082 11.7105 7.17206 11.6127 7.26047 11.5319C7.34887 11.4511 7.45263 11.3889 7.56557 11.349C7.67851 11.3091 7.79832 11.2924 7.91786 11.2997C8.03741 11.3071 8.15425 11.3385 8.26143 11.3919C8.36861 11.4454 8.46393 11.5199 8.54173 11.6109C8.61953 11.702 8.67822 11.8078 8.71428 11.922C8.76737 12.0731 8.86618 12.204 8.99699 12.2964C9.1278 12.3888 9.28413 12.4382 9.44429 12.4377H10.5557C10.7461 12.437 10.9296 12.3662 11.0711 12.2387C11.2126 12.1113 11.3022 11.9361 11.3227 11.7468C11.3432 11.5575 11.2932 11.3673 11.1823 11.2125C11.0714 11.0577 10.9073 10.9492 10.7214 10.9077L8.75714 10.4777C8.19691 10.3554 7.69968 10.035 7.35689 9.57527C7.01409 9.11559 6.84879 8.5476 6.89137 7.97576C6.93396 7.40392 7.18157 6.86668 7.58866 6.46284C7.99576 6.059 8.53498 5.81572 9.10714 5.77773V4.99773C9.10714 4.50487 9.50714 4.10487 10 4.10487ZM0.441429 17.0863C0.310805 17.0323 0.199137 16.9408 0.120558 16.8233C0.0419791 16.7058 2.2944e-05 16.5676 0 16.4263L0 13.5692C0 13.3797 0.0752549 13.198 0.209209 13.0641C0.343164 12.9301 0.524845 12.8549 0.714286 12.8549H3.57143C3.71289 12.8546 3.85123 12.8964 3.96893 12.9748C4.08663 13.0533 4.17838 13.165 4.23255 13.2956C4.28672 13.4263 4.30086 13.5701 4.2732 13.7089C4.24553 13.8476 4.1773 13.975 4.07714 14.0749L3.34143 14.8092C4.35885 16.2168 5.79623 17.2658 7.44711 17.8055C9.098 18.3452 10.8775 18.3479 12.5299 17.813C14.1824 17.2782 15.6228 16.2334 16.6444 14.8287C17.666 13.424 18.2161 11.7317 18.2157 9.99487C18.2158 9.87762 18.239 9.76154 18.284 9.65325C18.3289 9.54496 18.3948 9.44658 18.4777 9.36374C18.5607 9.28089 18.6592 9.21521 18.7675 9.17042C18.8759 9.12564 18.992 9.10264 19.1093 9.10273C19.2265 9.10282 19.3426 9.12601 19.4509 9.17097C19.5592 9.21593 19.6576 9.28177 19.7404 9.36475C19.8233 9.44772 19.889 9.5462 19.9337 9.65457C19.9785 9.76293 20.0015 9.87905 20.0014 9.9963C20.0013 12.0859 19.3467 14.1231 18.1295 15.8216C16.9123 17.5202 15.1937 18.7948 13.215 19.4665C11.2362 20.1382 9.09678 20.1733 7.09709 19.5668C5.0974 18.9603 3.33791 17.7426 2.06571 16.0849L1.22 16.932C1.12003 17.0318 0.992702 17.0998 0.854117 17.1273C0.715531 17.1547 0.571914 17.1405 0.441429 17.0863Z" fill="white"/>
</svg>
