<svg width="20" height="20" viewBox="0 0 20 20" fill="none" xmlns="http://www.w3.org/2000/svg">
<g clip-path="url(#clip0_146_15)">
<path fill-rule="evenodd" clip-rule="evenodd" d="M1.78429 10.0016C1.78394 8.26474 2.33404 6.57244 3.3556 5.16777C4.37716 3.76309 5.81761 2.7183 7.47008 2.18346C9.12254 1.64861 10.902 1.65123 12.5529 2.19093C14.2038 2.73063 15.6411 3.77964 16.6586 5.18731L15.9229 5.92303C15.8227 6.02293 15.7545 6.15032 15.7268 6.28904C15.6991 6.42777 15.7133 6.57159 15.7674 6.70226C15.8216 6.83294 15.9134 6.94459 16.0311 7.02306C16.1488 7.10153 16.2871 7.14328 16.4286 7.14303H19.2857C19.4752 7.14303 19.6568 7.06777 19.7908 6.93382C19.9247 6.79986 20 6.61818 20 6.42874V3.5716C20.0003 3.43014 19.9585 3.29179 19.88 3.1741C19.8016 3.0564 19.6899 2.96465 19.5592 2.91048C19.4286 2.85631 19.2847 2.84217 19.146 2.86983C19.0073 2.8975 18.8799 2.96573 18.78 3.06589L17.9343 3.91303C16.662 2.25596 14.9027 1.03891 12.9034 0.432721C10.9042 -0.17347 8.76523 -0.138368 6.78692 0.533099C4.8086 1.20457 3.09022 2.47869 1.87298 4.17661C0.655747 5.87453 0.000772425 7.91101 0 10.0002C0 10.237 0.0940686 10.4641 0.261512 10.6315C0.428955 10.799 0.656057 10.893 0.892857 10.893C1.12966 10.893 1.35676 10.799 1.5242 10.6315C1.69165 10.4641 1.78571 10.237 1.78571 10.0002M10 4.10732C10.4929 4.10732 10.8929 4.50732 10.8929 5.00017V5.79589C11.3607 5.85795 11.8023 6.04829 12.1686 6.34581C12.535 6.64333 12.8118 7.03644 12.9686 7.4816C13.0122 7.59314 13.033 7.71232 13.0296 7.83204C13.0263 7.95177 12.9989 8.0696 12.949 8.17851C12.8992 8.28742 12.8279 8.3852 12.7395 8.46601C12.6511 8.54682 12.5474 8.60902 12.4344 8.6489C12.3215 8.68879 12.2017 8.70554 12.0821 8.69816C11.9626 8.69079 11.8457 8.65943 11.7386 8.60597C11.6314 8.5525 11.5361 8.47802 11.4583 8.38695C11.3805 8.29589 11.3218 8.1901 11.2857 8.07589C11.2326 7.92478 11.1338 7.79395 11.003 7.70154C10.8722 7.60912 10.7159 7.55972 10.5557 7.56017H9.26571C9.1183 7.55874 8.97562 7.61216 8.86538 7.71004C8.75514 7.80792 8.68522 7.94328 8.6692 8.08983C8.65317 8.23637 8.69218 8.38365 8.77866 8.50304C8.86514 8.62243 8.9929 8.70542 9.13714 8.73589L11.1029 9.16446C11.6921 9.29235 12.2172 9.6241 12.5858 10.1013C12.9544 10.5784 13.1427 11.1704 13.1176 11.7728C13.0925 12.3752 12.8556 12.9494 12.4486 13.3943C12.0416 13.8391 11.4907 14.126 10.8929 14.2045V15.0002C10.8929 15.237 10.7988 15.4641 10.6313 15.6315C10.4639 15.799 10.2368 15.893 10 15.893C9.7632 15.893 9.5361 15.799 9.36865 15.6315C9.20121 15.4641 9.10714 15.237 9.10714 15.0002V14.2045C8.63929 14.1424 8.19775 13.9521 7.83139 13.6545C7.46503 13.357 7.18816 12.9639 7.03143 12.5187C6.98778 12.4072 6.96701 12.288 6.97037 12.1683C6.97373 12.0486 7.00115 11.9307 7.05098 11.8218C7.10082 11.7129 7.17206 11.6151 7.26047 11.5343C7.34887 11.4535 7.45263 11.3913 7.56557 11.3514C7.67851 11.3116 7.79832 11.2948 7.91786 11.3022C8.03741 11.3096 8.15425 11.3409 8.26143 11.3944C8.36861 11.4478 8.46393 11.5223 8.54173 11.6134C8.61953 11.7045 8.67822 11.8102 8.71428 11.9245C8.76737 12.0756 8.86618 12.2064 8.99699 12.2988C9.1278 12.3912 9.28413 12.4406 9.44429 12.4402H10.5557C10.7461 12.4395 10.9296 12.3686 11.0711 12.2412C11.2126 12.1137 11.3022 11.9386 11.3227 11.7493C11.3432 11.5599 11.2932 11.3697 11.1823 11.2149C11.0714 11.0601 10.9073 10.9516 10.7214 10.9102L8.75714 10.4802C8.19691 10.3579 7.69968 10.0374 7.35689 9.57771C7.01409 9.11803 6.84879 8.55004 6.89137 7.9782C6.93396 7.40636 7.18157 6.86912 7.58866 6.46528C7.99576 6.06144 8.53498 5.81816 9.10714 5.78017V5.00017C9.10714 4.50732 9.50714 4.10732 10 4.10732ZM0.441429 17.0887C0.310805 17.0347 0.199137 16.9432 0.120558 16.8257C0.0419791 16.7082 2.2944e-05 16.5701 0 16.4287L0 13.5716C0 13.3822 0.0752549 13.2005 0.209209 13.0665C0.343164 12.9326 0.524845 12.8573 0.714286 12.8573H3.57143C3.71289 12.8571 3.85123 12.8988 3.96893 12.9773C4.08663 13.0558 4.17838 13.1674 4.23255 13.2981C4.28672 13.4288 4.30086 13.5726 4.2732 13.7113C4.24553 13.85 4.1773 13.9774 4.07714 14.0773L3.34143 14.8116C4.35885 16.2193 5.79623 17.2683 7.44711 17.808C9.098 18.3477 10.8775 18.3503 12.5299 17.8155C14.1824 17.2806 15.6228 16.2358 16.6444 14.8312C17.666 13.4265 18.2161 11.7342 18.2157 9.99731C18.2158 9.88006 18.239 9.76398 18.284 9.65569C18.3289 9.5474 18.3948 9.44902 18.4777 9.36618C18.5607 9.28334 18.6592 9.21765 18.7675 9.17286C18.8759 9.12808 18.992 9.10508 19.1093 9.10517C19.2265 9.10527 19.3426 9.12845 19.4509 9.17341C19.5592 9.21837 19.6576 9.28421 19.7404 9.36719C19.8233 9.45016 19.889 9.54865 19.9337 9.65701C19.9785 9.76537 20.0015 9.88149 20.0014 9.99874C20.0013 12.0884 19.3467 14.1255 18.1295 15.8241C16.9123 17.5226 15.1937 18.7972 13.215 19.469C11.2362 20.1407 9.09678 20.1757 7.09709 19.5692C5.0974 18.9627 3.33791 17.7451 2.06571 16.0873L1.22 16.9345C1.12003 17.0343 0.992702 17.1022 0.854117 17.1297C0.715531 17.1572 0.571914 17.1429 0.441429 17.0887Z" fill="#A8A29E"/>
</g>
<defs>
<clipPath id="clip0_146_15">
<rect width="20" height="20" fill="white"/>
</clipPath>
</defs>
</svg>
