<svg width="20" height="14" viewBox="0 0 20 14" fill="none" xmlns="http://www.w3.org/2000/svg">
<path d="M17.5 4.51656V4.45295C17.4988 3.27234 17.0374 2.14045 16.2172 1.30563C15.397 0.470817 14.2849 0.00126291 13.125 0H12.5C12.1685 0 11.8505 0.134042 11.6161 0.37264C11.3817 0.611237 11.25 0.934844 11.25 1.27227V10.8143H10V2.54454C10 2.37583 9.93415 2.21403 9.81694 2.09473C9.69973 1.97543 9.54076 1.90841 9.375 1.90841H1.25C0.918479 1.90841 0.600537 2.04245 0.366116 2.28105C0.131696 2.51964 0 2.84325 0 3.18068L0 11.4504C0.000570812 11.967 0.155621 12.4712 0.444537 12.896C0.733453 13.3207 1.14255 13.6459 1.61743 13.8283C2.09231 14.0107 2.61049 14.0416 3.10306 13.917C3.59564 13.7924 4.03928 13.5181 4.375 13.1306C4.67509 13.4776 5.06237 13.7348 5.49526 13.8747C5.92815 14.0145 6.39029 14.0317 6.83204 13.9243C7.2738 13.817 7.67848 13.5892 8.00262 13.2654C8.32677 12.9417 8.55814 12.5341 8.67187 12.0866H15.0781C15.2293 12.6874 15.5908 13.2114 16.0948 13.56C16.5987 13.9086 17.2104 14.0579 17.8149 13.9797C18.4194 13.9016 18.9751 13.6014 19.3774 13.1357C19.7798 12.6699 20.0012 12.0706 20 11.4504V7.63363C19.9991 6.90066 19.75 6.19042 19.2946 5.62262C18.8392 5.05481 18.2054 4.66418 17.5 4.51656ZM12.5 1.27227H13.125C13.9538 1.27227 14.7487 1.60738 15.3347 2.20387C15.9208 2.80036 16.25 3.60938 16.25 4.45295V5.08909C16.25 5.2578 16.3158 5.4196 16.4331 5.5389C16.5503 5.6582 16.7092 5.72522 16.875 5.72522C17.3723 5.72522 17.8492 5.92629 18.2008 6.28418C18.5525 6.64208 18.75 7.12749 18.75 7.63363V9.24862C18.3706 9.0236 17.9391 8.90532 17.5 8.9059C16.9457 8.90643 16.4073 9.09407 15.9691 9.43941C15.5308 9.78475 15.2175 10.2683 15.0781 10.8143H12.5V1.27227ZM8.75 3.18068V10.8143H8.67187C8.55814 10.3668 8.32677 9.95924 8.00262 9.63545C7.67848 9.31167 7.2738 9.08387 6.83204 8.97654C6.39029 8.8692 5.92815 8.88637 5.49526 9.02621C5.06237 9.16605 4.67509 9.42327 4.375 9.77025C3.99421 9.32817 3.47437 9.03446 2.90436 8.93931C2.33435 8.84416 1.74957 8.9535 1.25 9.24862V3.18068H8.75ZM2.5 12.7227C2.25277 12.7227 2.0111 12.6481 1.80554 12.5083C1.59998 12.3685 1.43976 12.1698 1.34515 11.9373C1.25054 11.7048 1.22579 11.449 1.27402 11.2022C1.32225 10.9554 1.4413 10.7287 1.61612 10.5508C1.79093 10.3729 2.01366 10.2517 2.25614 10.2026C2.49861 10.1535 2.74995 10.1787 2.97835 10.275C3.20676 10.3713 3.40198 10.5344 3.53934 10.7436C3.67669 10.9528 3.75 11.1988 3.75 11.4504C3.75 11.7879 3.6183 12.1115 3.38388 12.3501C3.14946 12.5887 2.83152 12.7227 2.5 12.7227ZM6.25 12.7227C6.00277 12.7227 5.7611 12.6481 5.55554 12.5083C5.34997 12.3685 5.18976 12.1698 5.09515 11.9373C5.00054 11.7048 4.97579 11.449 5.02402 11.2022C5.07225 10.9554 5.1913 10.7287 5.36612 10.5508C5.54093 10.3729 5.76366 10.2517 6.00613 10.2026C6.24861 10.1535 6.49994 10.1787 6.72835 10.275C6.95676 10.3713 7.15198 10.5344 7.28933 10.7436C7.42669 10.9528 7.5 11.1988 7.5 11.4504C7.5 11.7879 7.3683 12.1115 7.13388 12.3501C6.89946 12.5887 6.58152 12.7227 6.25 12.7227ZM17.5 12.7227C17.2528 12.7227 17.0111 12.6481 16.8055 12.5083C16.6 12.3685 16.4398 12.1698 16.3451 11.9373C16.2505 11.7048 16.2258 11.449 16.274 11.2022C16.3222 10.9554 16.4413 10.7287 16.6161 10.5508C16.7909 10.3729 17.0137 10.2517 17.2561 10.2026C17.4986 10.1535 17.7499 10.1787 17.9783 10.275C18.2068 10.3713 18.402 10.5344 18.5393 10.7436C18.6767 10.9528 18.75 11.1988 18.75 11.4504C18.75 11.7879 18.6183 12.1115 18.3839 12.3501C18.1495 12.5887 17.8315 12.7227 17.5 12.7227Z" fill="#A8A29E"/>
</svg>
